<svg xmlns="http://www.w3.org/2000/svg" xmlns:xlink="http://www.w3.org/1999/xlink" viewBox="0 0 623.65 404.49"><defs><style>.cls-1,.cls-2,.cls-3,.cls-5,.cls-53{fill:none;}.cls-1{clip-rule:evenodd;}.cls-3,.cls-5,.cls-53{stroke:#000;}.cls-3,.cls-53{stroke-linejoin:round;}.cls-3,.cls-5{stroke-width:0.75px;}.cls-4{fill:#fff;}.cls-4,.cls-54{fill-rule:evenodd;}.cls-5{stroke-linecap:round;stroke-miterlimit:8;}.cls-6{clip-path:url(#clip-path);}.cls-7{clip-path:url(#clip-path-2);}.cls-13,.cls-8{font-size:9.02px;}.cls-8{font-family:SimSun;}.cls-9{clip-path:url(#clip-path-3);}.cls-10{clip-path:url(#clip-path-4);}.cls-11{clip-path:url(#clip-path-5);}.cls-12{clip-path:url(#clip-path-6);}.cls-13{font-family:Cambria;}.cls-14{clip-path:url(#clip-path-10);}.cls-15{clip-path:url(#clip-path-11);}.cls-16{clip-path:url(#clip-path-12);}.cls-17{clip-path:url(#clip-path-13);}.cls-18{clip-path:url(#clip-path-16);}.cls-19{clip-path:url(#clip-path-17);}.cls-20{clip-path:url(#clip-path-18);}.cls-21{clip-path:url(#clip-path-19);}.cls-22{clip-path:url(#clip-path-20);}.cls-23{clip-path:url(#clip-path-21);}.cls-24{clip-path:url(#clip-path-22);}.cls-25{clip-path:url(#clip-path-23);}.cls-26{clip-path:url(#clip-path-24);}.cls-27{clip-path:url(#clip-path-25);}.cls-28{clip-path:url(#clip-path-26);}.cls-29{clip-path:url(#clip-path-27);}.cls-30{clip-path:url(#clip-path-28);}.cls-31{clip-path:url(#clip-path-29);}.cls-32{clip-path:url(#clip-path-30);}.cls-33{clip-path:url(#clip-path-31);}.cls-34{clip-path:url(#clip-path-32);}.cls-35{clip-path:url(#clip-path-33);}.cls-36{clip-path:url(#clip-path-34);}.cls-37{clip-path:url(#clip-path-35);}.cls-38{clip-path:url(#clip-path-36);}.cls-39{clip-path:url(#clip-path-37);}.cls-40{clip-path:url(#clip-path-38);}.cls-41{clip-path:url(#clip-path-39);}.cls-42{clip-path:url(#clip-path-40);}.cls-43{clip-path:url(#clip-path-41);}.cls-44{letter-spacing:-0.23em;}.cls-45{letter-spacing:-0.51em;}.cls-46{clip-path:url(#clip-path-47);}.cls-47{clip-path:url(#clip-path-48);}.cls-48{letter-spacing:0em;}.cls-49{clip-path:url(#clip-path-50);}.cls-50{clip-path:url(#clip-path-51);}.cls-51{clip-path:url(#clip-path-53);}.cls-52{clip-path:url(#clip-path-54);}.cls-53{stroke-width:1px;}</style><clipPath id="clip-path"><polygon class="cls-1" points="502.58 389.1 575.9 389.1 575.9 400.88 502.58 400.88 502.58 389.1 502.58 389.1"/></clipPath><clipPath id="clip-path-2"><rect class="cls-2" x="502.58" y="389.1" width="73.32" height="11.79"/></clipPath><clipPath id="clip-path-3"><polygon class="cls-1" points="346.94 179.3 414.5 179.3 414.5 191.09 346.94 191.09 346.94 179.3 346.94 179.3"/></clipPath><clipPath id="clip-path-4"><rect class="cls-2" x="346.94" y="179.3" width="67.56" height="11.79"/></clipPath><clipPath id="clip-path-5"><polygon class="cls-1" points="341.54 249.91 425.9 249.91 425.9 261.7 341.54 261.7 341.54 249.91 341.54 249.91"/></clipPath><clipPath id="clip-path-6"><rect class="cls-2" x="341.54" y="249.92" width="84.36" height="11.79"/></clipPath><clipPath id="clip-path-10"><polygon class="cls-1" points="543.14 41.93 622.94 41.93 622.94 55.04 543.14 55.04 543.14 41.93 543.14 41.93"/></clipPath><clipPath id="clip-path-11"><rect class="cls-2" x="543.14" y="41.93" width="79.8" height="13.11"/></clipPath><clipPath id="clip-path-12"><polygon class="cls-1" points="405.74 41.93 507.14 41.93 507.14 55.04 405.74 55.04 405.74 41.93 405.74 41.93"/></clipPath><clipPath id="clip-path-13"><rect class="cls-2" x="405.74" y="41.93" width="101.4" height="13.11"/></clipPath><clipPath id="clip-path-16"><polygon class="cls-1" points="502.58 244.74 567.38 244.74 567.38 256.41 502.58 256.41 502.58 244.74 502.58 244.74"/></clipPath><clipPath id="clip-path-17"><rect class="cls-2" x="502.58" y="244.74" width="64.8" height="11.67"/></clipPath><clipPath id="clip-path-18"><polygon class="cls-1" points="502.58 319.93 579.62 319.93 579.62 331.71 502.58 331.71 502.58 319.93 502.58 319.93"/></clipPath><clipPath id="clip-path-19"><rect class="cls-2" x="502.58" y="319.93" width="77.04" height="11.79"/></clipPath><clipPath id="clip-path-20"><polygon class="cls-1" points="502.58 171.72 570.14 171.72 570.14 183.51 502.58 183.51 502.58 171.72 502.58 171.72"/></clipPath><clipPath id="clip-path-21"><rect class="cls-2" x="502.58" y="171.72" width="67.56" height="11.79"/></clipPath><clipPath id="clip-path-22"><polygon class="cls-1" points="502.58 95.46 570.14 95.46 570.14 107.25 502.58 107.25 502.58 95.46 502.58 95.46"/></clipPath><clipPath id="clip-path-23"><rect class="cls-2" x="502.58" y="95.46" width="67.56" height="11.79"/></clipPath><clipPath id="clip-path-24"><polygon class="cls-1" points="106.22 3.67 192.26 3.67 192.26 15.46 106.22 15.46 106.22 3.67 106.22 3.67"/></clipPath><clipPath id="clip-path-25"><rect class="cls-2" x="106.22" y="3.67" width="86.04" height="11.79"/></clipPath><clipPath id="clip-path-26"><polygon class="cls-1" points="243.14 4.4 333.74 4.4 333.74 17.63 243.14 17.63 243.14 4.4 243.14 4.4"/></clipPath><clipPath id="clip-path-27"><rect class="cls-2" x="243.14" y="4.4" width="90.6" height="13.23"/></clipPath><clipPath id="clip-path-28"><polygon class="cls-1" points="0.74 100.51 64.34 100.51 64.34 112.3 0.74 112.3 0.74 100.51 0.74 100.51"/></clipPath><clipPath id="clip-path-29"><rect class="cls-2" x="0.74" y="100.51" width="63.6" height="11.79"/></clipPath><clipPath id="clip-path-30"><polygon class="cls-1" points="105.62 69.96 192.26 69.96 192.26 81.62 105.62 81.62 105.62 69.96 105.62 69.96"/></clipPath><clipPath id="clip-path-31"><rect class="cls-2" x="105.62" y="69.96" width="86.64" height="11.67"/></clipPath><clipPath id="clip-path-32"><polygon class="cls-1" points="105.62 273.01 178.94 273.01 178.94 284.68 105.62 284.68 105.62 273.01 105.62 273.01"/></clipPath><clipPath id="clip-path-33"><rect class="cls-2" x="105.62" y="273.01" width="73.32" height="11.67"/></clipPath><clipPath id="clip-path-34"><polygon class="cls-1" points="105.74 346.75 173.54 346.75 173.54 358.54 105.74 358.54 105.74 346.75 105.74 346.75"/></clipPath><clipPath id="clip-path-35"><rect class="cls-2" x="105.74" y="346.75" width="67.8" height="11.79"/></clipPath><clipPath id="clip-path-36"><polygon class="cls-1" points="245.3 204.32 310.1 204.32 310.1 216.11 245.3 216.11 245.3 204.32 245.3 204.32"/></clipPath><clipPath id="clip-path-37"><rect class="cls-2" x="245.3" y="204.32" width="64.8" height="11.79"/></clipPath><clipPath id="clip-path-38"><polygon class="cls-1" points="233.18 273.01 300.86 273.01 300.86 284.68 233.18 284.68 233.18 273.01 233.18 273.01"/></clipPath><clipPath id="clip-path-39"><rect class="cls-2" x="233.18" y="273.01" width="67.68" height="11.67"/></clipPath><clipPath id="clip-path-40"><polygon class="cls-1" points="242.9 70.68 355.94 70.68 355.94 83.79 242.9 83.79 242.9 70.68 242.9 70.68"/></clipPath><clipPath id="clip-path-41"><rect class="cls-2" x="242.9" y="70.68" width="113.04" height="13.11"/></clipPath><clipPath id="clip-path-47"><polygon class="cls-1" points="105.62 213.47 178.94 213.47 178.94 225.25 105.62 225.25 105.62 213.47 105.62 213.47"/></clipPath><clipPath id="clip-path-48"><rect class="cls-2" x="105.62" y="213.47" width="73.32" height="11.79"/></clipPath><clipPath id="clip-path-50"><polygon class="cls-1" points="105.74 135.64 179.18 135.64 179.18 147.43 105.74 147.43 105.74 135.64 105.74 135.64"/></clipPath><clipPath id="clip-path-51"><rect class="cls-2" x="105.74" y="135.64" width="73.44" height="11.79"/></clipPath><clipPath id="clip-path-53"><polygon class="cls-1" points="245.3 139.73 346.1 139.73 346.1 152.84 245.3 152.84 245.3 139.73 245.3 139.73"/></clipPath><clipPath id="clip-path-54"><rect class="cls-2" x="245.3" y="139.73" width="100.8" height="13.11"/></clipPath></defs><title>Asset 12</title><g id="Layer_2" data-name="Layer 2"><g id="Layer_1-2" data-name="Layer 1"><line class="cls-3" x1="224.08" y1="146.48" x2="224.08" y2="210.59"/><line class="cls-3" x1="431.18" y1="211.34" x2="431.13" y2="353.44"/><polygon class="cls-4" points="502.13 385.87 576.28 385.87 576.28 404.11 502.13 404.11 502.13 385.87 502.13 385.87"/><polygon class="cls-5" points="502.13 385.87 502.13 404.11 576.28 404.11 576.28 385.87 502.13 385.87 502.13 385.87"/><g class="cls-6"><g class="cls-7"><text class="cls-8" transform="translate(521.3 400.41)">软件工程</text></g></g><polygon class="cls-4" points="346.48 176.06 414.88 176.06 414.88 194.3 346.48 194.3 346.48 176.06 346.48 176.06"/><polygon class="cls-5" points="346.48 176.06 346.48 194.3 414.88 194.3 414.88 176.06 346.48 176.06 346.48 176.06"/><g class="cls-9"><g class="cls-10"><text class="cls-8" transform="translate(358.21 190.61)">运筹学基础</text></g></g><polygon class="cls-4" points="341.08 246.68 426.23 246.68 426.23 264.92 341.08 264.92 341.08 246.68 341.08 246.68"/><polygon class="cls-5" points="341.08 246.68 341.08 264.92 426.23 264.92 426.23 246.68 341.08 246.68 341.08 246.68"/><g class="cls-11"><g class="cls-12"><text class="cls-8" transform="translate(352.21 261.23)">编译原理和技术</text></g><g class="cls-12"><text class="cls-8" transform="translate(371.54 277.59)">（</text></g><g class="cls-12"><text class="cls-13" transform="translate(380.53 277.59)">H</text></g><g class="cls-12"><text class="cls-8" transform="translate(386.65 277.59)">）</text></g></g><polygon class="cls-4" points="542.68 37.87 623.28 37.87 623.28 59.02 542.68 59.02 542.68 37.87 542.68 37.87"/><polygon class="cls-5" points="542.68 37.87 542.68 59.02 623.28 59.02 623.28 37.87 542.68 37.87 542.68 37.87"/><g class="cls-14"><g class="cls-15"><text class="cls-8" transform="translate(550.34 53.24)">计算机体系结构</text></g></g><polygon class="cls-4" points="405.28 37.87 507.48 37.87 507.48 59.02 405.28 59.02 405.28 37.87 405.28 37.87"/><polygon class="cls-5" points="405.28 37.87 405.28 59.02 507.48 59.02 507.48 37.87 405.28 37.87 405.28 37.87"/><g class="cls-16"><g class="cls-17"><text class="cls-8" transform="translate(412.94 53.24)">微机原理与系统（</text></g><g class="cls-17"><text class="cls-13" transform="translate(484.93 53.24)">B</text></g><g class="cls-17"><text class="cls-8" transform="translate(490.45 53.24)">）</text></g></g><polygon class="cls-4" points="502.13 241.41 567.68 241.41 567.68 259.66 502.13 259.66 502.13 241.41 502.13 241.41"/><polygon class="cls-5" points="502.13 241.41 502.13 259.66 567.68 259.66 567.68 241.41 502.13 241.41 502.13 241.41"/><g class="cls-18"><g class="cls-19"><text class="cls-8" transform="translate(516.98 256.05)">算法基础</text></g></g><polygon class="cls-4" points="502.13 316.7 579.98 316.7 579.98 334.94 502.13 334.94 502.13 316.7 502.13 316.7"/><polygon class="cls-5" points="502.13 316.7 502.13 334.94 579.98 334.94 579.98 316.7 502.13 316.7 502.13 316.7"/><g class="cls-20"><g class="cls-21"><text class="cls-8" transform="translate(505.09 331.23)">数据库系统及应用</text></g></g><polygon class="cls-4" points="502.13 168.49 570.53 168.49 570.53 186.73 502.13 186.73 502.13 168.49 502.13 168.49"/><polygon class="cls-5" points="502.13 168.49 502.13 186.73 570.53 186.73 570.53 168.49 502.13 168.49 502.13 168.49"/><g class="cls-22"><g class="cls-23"><text class="cls-8" transform="translate(513.85 183.03)">计算机网络</text></g></g><polygon class="cls-4" points="502.13 92.2 570.53 92.2 570.53 110.44 502.13 110.44 502.13 92.2 502.13 92.2"/><polygon class="cls-5" points="502.13 92.2 502.13 110.44 570.53 110.44 570.53 92.2 502.13 92.2 502.13 92.2"/><g class="cls-24"><g class="cls-25"><text class="cls-8" transform="translate(509.41 106.77)">人工智能基础</text></g></g><polygon class="cls-4" points="105.78 0.38 192.63 0.38 192.63 18.62 105.78 18.62 105.78 0.38 105.78 0.38"/><polygon class="cls-5" points="105.78 0.38 105.78 18.62 192.63 18.62 192.63 0.38 105.78 0.38 105.78 0.38"/><g class="cls-26"><g class="cls-27"><text class="cls-8" transform="translate(117.73 14.98)">模拟与数字电路</text></g></g><polygon class="cls-4" points="242.68 0.38 334.03 0.38 334.03 21.53 242.68 21.53 242.68 0.38 242.68 0.38"/><polygon class="cls-5" points="242.68 0.38 242.68 21.53 334.03 21.53 334.03 0.38 242.68 0.38 242.68 0.38"/><g class="cls-28"><g class="cls-29"><text class="cls-8" transform="translate(250.34 15.7)">计算机组成原理</text></g></g><polygon class="cls-4" points="0.38 97.26 64.73 97.26 64.73 115.51 0.38 115.51 0.38 97.26 0.38 97.26"/><polygon class="cls-5" points="0.38 97.26 0.38 115.51 64.73 115.51 64.73 97.26 0.38 97.26 0.38 97.26"/><g class="cls-30"><g class="cls-31"><text class="cls-8" transform="translate(9.98 111.81)">计算机导论</text></g></g><polygon class="cls-4" points="105.23 66.64 192.63 66.64 192.63 84.88 105.23 84.88 105.23 66.64 105.23 66.64"/><polygon class="cls-5" points="105.23 66.64 105.23 84.88 192.63 84.88 192.63 66.64 105.23 66.64 105.23 66.64"/><g class="cls-32"><g class="cls-33"><text class="cls-8" transform="translate(108.37 81.27)">模拟与数字电路实验</text></g></g><polygon class="cls-4" points="105.23 269.68 179.33 269.68 179.33 287.93 105.23 287.93 105.23 269.68 105.23 269.68"/><polygon class="cls-5" points="105.23 269.68 105.23 287.93 179.33 287.93 179.33 269.68 105.23 269.68 105.23 269.68"/><g class="cls-34"><g class="cls-35"><text class="cls-8" transform="translate(124.22 284.32)">代数结构</text></g></g><polygon class="cls-4" points="105.38 343.46 173.93 343.46 173.93 361.71 105.38 361.71 105.38 343.46 105.38 343.46"/><polygon class="cls-5" points="105.38 343.46 105.38 361.71 173.93 361.71 173.93 343.46 105.38 343.46 105.38 343.46"/><g class="cls-36"><g class="cls-37"><text class="cls-8" transform="translate(130.57 358.06)">图论</text></g></g><polygon class="cls-4" points="244.88 201.02 310.43 201.02 310.43 219.26 244.88 219.26 244.88 201.02 244.88 201.02"/><polygon class="cls-5" points="244.88 201.02 244.88 219.26 310.43 219.26 310.43 201.02 244.88 201.02 244.88 201.02"/><g class="cls-38"><g class="cls-39"><text class="cls-8" transform="translate(259.69 215.63)">数据结构</text></g></g><polygon class="cls-4" points="232.78 269.68 301.18 269.68 301.18 287.93 232.78 287.93 232.78 269.68 232.78 269.68"/><polygon class="cls-5" points="232.78 269.68 232.78 287.93 301.18 287.93 301.18 269.68 232.78 269.68 232.78 269.68"/><g class="cls-40"><g class="cls-41"><text class="cls-8" transform="translate(249.01 284.32)">数理逻辑</text></g></g><polygon class="cls-4" points="242.53 66.64 356.28 66.64 356.28 87.79 242.53 87.79 242.53 66.64 242.53 66.64"/><polygon class="cls-5" points="242.53 66.64 242.53 87.79 356.28 87.79 356.28 66.64 242.53 66.64 242.53 66.64"/><g class="cls-42"><g class="cls-43"><text class="cls-8" transform="translate(250.09 81.99)">操作系统原理与设<tspan class="cls-44" x="72.18" y="0">计</tspan><tspan x="79.16" y="0">（</tspan></text></g><g class="cls-43"><text class="cls-13" transform="translate(338.05 81.99)">H</text></g><g class="cls-43"><text class="cls-8" transform="translate(344.18 81.99)">）</text></g><g class="cls-43"><text class="cls-8" transform="translate(250.09 98.34)"><tspan class="cls-45">（</tspan><tspan x="4.46" y="0">（</tspan></text></g><g class="cls-43"><text class="cls-13" transform="translate(263.54 98.34)">H</text></g><g class="cls-43"><text class="cls-8" transform="translate(269.66 98.34)">）</text></g></g><polygon class="cls-4" points="105.23 210.24 179.33 210.24 179.33 228.48 105.23 228.48 105.23 210.24 105.23 210.24"/><polygon class="cls-5" points="105.23 210.24 105.23 228.48 179.33 228.48 179.33 210.24 105.23 210.24 105.23 210.24"/><g class="cls-46"><g class="cls-47"><text class="cls-8" transform="translate(120.26 224.77)">程序设计</text></g><g class="cls-47"><text class="cls-13" transform="translate(158.54 224.77)"><tspan class="cls-48">I</tspan><tspan x="2.89" y="0">I</tspan></text></g></g><polygon class="cls-4" points="105.38 132.4 179.48 132.4 179.48 150.64 105.38 150.64 105.38 132.4 105.38 132.4"/><polygon class="cls-5" points="105.38 132.4 105.38 150.64 179.48 150.64 179.48 132.4 105.38 132.4 105.38 132.4"/><g class="cls-49"><g class="cls-50"><text class="cls-8" transform="translate(121.81 146.94)">程序设计</text></g><g class="cls-50"><text class="cls-13" transform="translate(160.09 146.94)">I</text></g></g><polygon class="cls-4" points="244.88 135.66 346.48 135.66 346.48 156.81 244.88 156.81 244.88 135.66 244.88 135.66"/><polygon class="cls-5" points="244.88 135.66 244.88 156.81 346.48 156.81 346.48 135.66 244.88 135.66 244.88 135.66"/><g class="cls-51"><g class="cls-52"><text class="cls-8" transform="translate(252.49 151.03)">计算机系统概论（</text></g><g class="cls-52"><text class="cls-13" transform="translate(324.49 151.03)">H</text></g><g class="cls-52"><text class="cls-8" transform="translate(330.62 151.03)">）</text></g></g><line class="cls-3" x1="431.18" y1="277.6" x2="462.23" y2="277.6"/><line class="cls-3" x1="222.03" y1="13.06" x2="222.03" y2="77.16"/><line class="cls-53" x1="462.23" y1="102.93" x2="497.13" y2="102.93"/><polygon class="cls-54" points="496.13 99.92 502.13 102.93 496.13 105.93 496.13 99.92 496.13 99.92"/><line class="cls-3" x1="205.33" y1="13.06" x2="205.33" y2="77.16"/><line class="cls-53" x1="507.63" y1="46.89" x2="537.68" y2="46.89"/><polygon class="cls-54" points="536.68 43.88 542.68 46.89 536.68 49.9 536.68 43.88 536.68 43.88"/><line class="cls-3" x1="64.73" y1="106.28" x2="78.98" y2="106.28"/><line class="cls-3" x1="301.53" y1="277.6" x2="431.13" y2="277.6"/><line class="cls-3" x1="316.43" y1="251.84" x2="316.43" y2="277.6"/><line class="cls-3" x1="462.23" y1="102.53" x2="462.23" y2="391.88"/><line class="cls-53" x1="462.23" y1="250.44" x2="497.13" y2="250.44"/><polygon class="cls-54" points="496.13 247.43 502.13 250.44 496.13 253.44 496.13 247.43 496.13 247.43"/><line class="cls-53" x1="462.23" y1="324.97" x2="497.13" y2="324.97"/><polygon class="cls-54" points="496.13 321.96 502.13 324.97 496.13 327.98 496.13 321.96 496.13 321.96"/><line class="cls-53" x1="462.23" y1="391.88" x2="497.13" y2="391.88"/><polygon class="cls-54" points="496.13 388.87 502.13 391.88 496.13 394.89 496.13 388.87 496.13 388.87"/><line class="cls-53" x1="462.23" y1="174.65" x2="497.13" y2="174.65"/><polygon class="cls-54" points="496.13 171.64 502.13 174.65 496.13 177.66 496.13 171.64 496.13 171.64"/><line class="cls-3" x1="371.68" y1="13.06" x2="371.68" y2="77.16"/><line class="cls-53" x1="371.53" y1="46.89" x2="400.28" y2="46.89"/><polygon class="cls-54" points="399.28 43.88 405.28 46.89 399.28 49.9 399.28 43.88 399.28 43.88"/><line class="cls-3" x1="327.58" y1="185.58" x2="327.58" y2="211.34"/><line class="cls-53" x1="327.18" y1="185.58" x2="341.48" y2="185.58"/><polygon class="cls-54" points="340.48 182.57 346.48 185.58 340.48 188.59 340.48 182.57 340.48 182.57"/><line class="cls-3" x1="309.93" y1="211.34" x2="431.13" y2="211.34"/><line class="cls-53" x1="316.43" y1="251.84" x2="336.08" y2="251.84"/><polygon class="cls-54" points="335.08 248.83 341.08 251.84 335.08 254.85 335.08 248.83 335.08 248.83"/><line class="cls-53" x1="179.33" y1="280.51" x2="226.88" y2="280.51"/><polygon class="cls-54" points="225.88 277.5 231.88 280.51 225.88 283.52 225.88 277.5 225.88 277.5"/><line class="cls-3" x1="174.68" y1="353.44" x2="430.78" y2="353.44"/><line class="cls-3" x1="192.63" y1="11.5" x2="205.33" y2="11.55"/><line class="cls-3" x1="192.63" y1="77.16" x2="205.33" y2="77.21"/><line class="cls-3" x1="205.33" y1="46.89" x2="221.88" y2="46.89"/><line class="cls-53" x1="221.88" y1="13.06" x2="237.68" y2="13.06"/><polygon class="cls-54" points="236.68 10.05 242.68 13.06 236.68 16.06 236.68 10.05 236.68 10.05"/><line class="cls-53" x1="222.03" y1="77.16" x2="237.68" y2="77.16"/><polygon class="cls-54" points="236.68 74.16 242.68 77.16 236.68 80.17 236.68 74.16 236.68 74.16"/><line class="cls-3" x1="334.03" y1="13.06" x2="371.68" y2="13.06"/><line class="cls-3" x1="356.28" y1="77.16" x2="371.53" y2="77.21"/><line class="cls-3" x1="180.18" y1="142.27" x2="204.93" y2="142.27"/><line class="cls-3" x1="179.48" y1="219.26" x2="204.93" y2="219.26"/><line class="cls-3" x1="204.93" y1="142.92" x2="204.93" y2="219.26"/><line class="cls-3" x1="78.98" y1="13.06" x2="78.98" y2="353.44"/><line class="cls-53" x1="78.98" y1="13.06" x2="100.23" y2="13.06"/><polygon class="cls-54" points="99.23 10.05 105.23 13.06 99.23 16.06 99.23 10.05 99.23 10.05"/><line class="cls-53" x1="78.98" y1="353.44" x2="100.23" y2="353.44"/><polygon class="cls-54" points="99.23 350.43 105.23 353.44 99.23 356.44 99.23 350.43 99.23 350.43"/><line class="cls-53" x1="78.98" y1="280.51" x2="100.23" y2="280.51"/><polygon class="cls-54" points="99.23 277.5 105.23 280.51 99.23 283.52 99.23 277.5 99.23 277.5"/><line class="cls-53" x1="79.83" y1="219.26" x2="101.08" y2="219.26"/><polygon class="cls-54" points="100.08 216.25 106.08 219.26 100.08 222.27 100.08 216.25 100.08 216.25"/><line class="cls-53" x1="78.98" y1="142.27" x2="100.23" y2="142.27"/><polygon class="cls-54" points="99.23 139.26 105.23 142.27 99.23 145.28 99.23 139.26 99.23 139.26"/><line class="cls-53" x1="78.98" y1="77.16" x2="100.23" y2="77.16"/><polygon class="cls-54" points="99.23 74.16 105.23 77.16 99.23 80.17 99.23 74.16 99.23 74.16"/><line class="cls-53" x1="224.08" y1="146.48" x2="239.88" y2="146.48"/><polygon class="cls-54" points="238.88 143.47 244.88 146.48 238.88 149.49 238.88 143.47 238.88 143.47"/><line class="cls-53" x1="224.23" y1="210.59" x2="239.88" y2="210.59"/><polygon class="cls-54" points="238.88 207.58 244.88 210.59 238.88 213.6 238.88 207.58 238.88 207.58"/><line class="cls-3" x1="205.43" y1="176.81" x2="224.23" y2="176.81"/><line class="cls-3" x1="346.18" y1="146.38" x2="371.63" y2="146.38"/><line class="cls-3" x1="371.63" y1="70.05" x2="371.63" y2="146.38"/></g></g></svg>